<svg xmlns="http://www.w3.org/2000/svg" viewBox="0 0 100 75"><defs><style>.a{fill:#2a2828;}</style></defs><g transform="translate(-770 -340)"><g transform="translate(770 340)"><path class="a" d="M90.267,89.674V71.636c0-8.07-5.134-11.036-9.947-11.036H19.358c-4.813,0-9.947,2.848-9.947,11.036V89.674C4.6,90.268,0,93.828,0,102.016v14a4.061,4.061,0,0,0,3.85,4.272H5.134v11.036a4.061,4.061,0,0,0,3.85,4.272H12.62a4.061,4.061,0,0,0,3.85-4.272V120.173H83.529v11.155a4.061,4.061,0,0,0,3.85,4.272h3.636a4.061,4.061,0,0,0,3.85-4.272V120.173H96.15A4.061,4.061,0,0,0,100,115.9V102.016C99.679,93.828,95.08,90.268,90.267,89.674ZM13.048,71.636h.214c0-5.578,3.316-6.764,6.1-6.764H80.321c2.781,0,6.1,1.187,6.1,6.764V89.556H83.529V79.35a4.061,4.061,0,0,0-3.85-4.272H56.15A4.061,4.061,0,0,0,52.3,79.35V89.556H47.807V79.35a4.061,4.061,0,0,0-3.85-4.272H20.428a4.061,4.061,0,0,0-3.85,4.272V89.556H13.048ZM79.679,79.35V89.556H56.15V79.35Zm-35.508,0V89.556H20.642V79.35ZM12.513,131.328H8.877V120.173h3.636v11.155Zm78.289,0H87.166V120.173H90.8Zm5.027-15.309H3.743v-6.29H95.829Zm0-10.562H3.743v-3.441c0-7.12,4.706-8.188,7.38-8.188H88.449c2.781,0,7.38,1.068,7.38,8.188v3.441Z" transform="translate(0 -60.6)"/></g></g></svg>