<svg xmlns="http://www.w3.org/2000/svg" viewBox="0 0 100 75"><defs><style>.a{fill:#2a2828;}</style></defs><g transform="translate(-490 -340)"><g transform="translate(490 340)"><path class="a" d="M109.255,14.233H93.768a5.2,5.2,0,0,0,1.711-3.144h.7c2.592,0,4.7-1.513,4.7-3.373v-1.1c0-1.86-2.108-3.373-4.7-3.373h-.664V1.183C95.515.529,94.777,0,93.868,0H76.688c-.91,0-1.647.53-1.647,1.183v9.37a5.046,5.046,0,0,0,1.747,3.68H45.017a5.047,5.047,0,0,0,1.746-3.68V1.183C46.763.529,46.025,0,45.116,0H27.939c-.909,0-1.647.53-1.647,1.183V3.241h-.667c-2.59,0-4.7,1.513-4.7,3.373v1.1c0,1.86,2.107,3.373,4.7,3.373h.7a5.2,5.2,0,0,0,1.712,3.144H12.549c-.909,0-1.647.53-1.647,1.183v5.543c0,.653.738,1.183,1.647,1.183h7.506v5.143c0,.653.737,1.183,1.647,1.183H54.9V66.9H44.261a1.643,1.643,0,0,0-1.6.889l-2.043,5.733a.934.934,0,0,0,.295,1.019,1.938,1.938,0,0,0,1.3.457H79.589a1.938,1.938,0,0,0,1.3-.457.934.934,0,0,0,.294-1.019L79.14,67.791a1.644,1.644,0,0,0-1.6-.889H66.906V28.467h33.2c.909,0,1.647-.53,1.647-1.183V22.142h7.506c.91,0,1.647-.53,1.647-1.183V15.416C110.9,14.762,110.165,14.233,109.255,14.233ZM95.514,5.606h.664c.775,0,1.406.452,1.406,1.007v1.1c0,.555-.631,1.007-1.406,1.007h-.664ZM26.292,8.723h-.667c-.773,0-1.4-.452-1.4-1.007v-1.1c0-.555.629-1.007,1.4-1.007h.667ZM78.334,2.366H92.22v8.187c0,2.029-2.3,3.68-5.125,3.68H83.46c-2.826,0-5.125-1.651-5.125-3.68Zm-48.748,0H43.469v8.187c0,2.029-2.3,3.68-5.125,3.68H34.709c-2.825,0-5.123-1.651-5.123-3.68V2.366Zm46.679,66.9,1.2,3.367H44.339l1.2-3.367H76.265ZM58.192,66.9V28.467h5.419V66.9H58.192ZM98.455,26.1H23.349v-3.96H98.455Zm9.153-6.326H14.2V16.6h93.411Z" transform="translate(-10.902)"/></g></g></svg>