<svg xmlns="http://www.w3.org/2000/svg" viewBox="0 0 31.012 22.047"><defs><style>.a{fill:#707070;}</style></defs><g transform="translate(-1485 -31)"><g transform="translate(1485 26.518)"><path class="a" d="M25.109,21.51a.5.5,0,0,1-.342-.136l-5.754-5.4a.5.5,0,1,1,.685-.728l5.754,5.4a.5.5,0,0,1-.343.864Z"/><path class="a" d="M5.9,21.51a.5.5,0,0,1-.343-.864l5.756-5.4a.5.5,0,1,1,.685.728l-5.756,5.4A.5.5,0,0,1,5.9,21.51Z"/></g><path class="a" d="M28.512,26.529H2.5a2.5,2.5,0,0,1-2.5-2.5V6.982a2.5,2.5,0,0,1,2.5-2.5H28.512a2.5,2.5,0,0,1,2.5,2.5V24.029A2.5,2.5,0,0,1,28.512,26.529ZM2.5,5.482A1.5,1.5,0,0,0,1,6.982V24.029a1.5,1.5,0,0,0,1.5,1.5H28.512a1.5,1.5,0,0,0,1.5-1.5V6.982a1.5,1.5,0,0,0-1.5-1.5Z" transform="translate(1485 26.518)"/><path class="a" d="M15.506,18.018a2.8,2.8,0,0,1-1.836-.662L.83,6.155A.5.5,0,1,1,1.487,5.4l12.84,11.2a1.871,1.871,0,0,0,2.357,0L29.508,5.419a.5.5,0,1,1,.658.754L17.342,17.355A2.794,2.794,0,0,1,15.506,18.018Z" transform="translate(1485 26.518)"/></g></svg>