<svg xmlns="http://www.w3.org/2000/svg" viewBox="0 0 21.378 22.519"><defs><style>.a{fill:#707070;}</style></defs><g transform="translate(-1466 -221)"><path class="a" d="M17.182,22.519a8.783,8.783,0,0,1-3.145-.7A23.58,23.58,0,0,1,6.1,16.092,24.976,24.976,0,0,1,.667,7.732C-.221,5.251-.223,3.215.662,2.284c.127-.134.257-.278.39-.426C1.86.963,2.773-.044,3.982,0A3.487,3.487,0,0,1,6.45,1.667c2.443,3.2,1.342,4.342.067,5.664l-.225.235c-.209.22-.6,1.237,3.063,5.1a20.644,20.644,0,0,0,3.032,2.741c.513.351,1.432.883,1.808.486l.227-.241c1.254-1.34,2.337-2.5,5.374.075a3.722,3.722,0,0,1,1.581,2.6c.05,1.273-.913,2.237-1.763,3.087-.14.141-.277.277-.4.411A2.713,2.713,0,0,1,17.182,22.519ZM3.9.757c-.859,0-1.635.86-2.322,1.622-.138.153-.272.3-.4.44-.659.694-.593,2.517.17,4.646a24.209,24.209,0,0,0,5.271,8.092,22.86,22.86,0,0,0,7.68,5.55c2.021.8,3.752.873,4.41.18.132-.139.273-.279.418-.424.738-.739,1.576-1.577,1.54-2.506a3.08,3.08,0,0,0-1.312-2.041c-2.53-2.144-3.238-1.387-4.411-.133l-.23.245c-.561.592-1.472.461-2.709-.386A21.322,21.322,0,0,1,8.847,13.2C5.8,9.994,4.832,8.033,5.784,7.028l.229-.239c1.193-1.236,1.913-1.982-.123-4.649A2.909,2.909,0,0,0,3.952.758Z" transform="translate(1466 221)"/></g></svg>