<svg xmlns="http://www.w3.org/2000/svg" viewBox="0 0 100 75"><defs><style>.a{fill:#2a2828;}</style></defs><g transform="translate(-630 -511)"><g transform="translate(630 511)"><path class="a" d="M97.988,68.457H51.911V52.84a6.042,6.042,0,0,1,12.072,0v4.434a2.014,2.014,0,0,0,4.024,0V52.84a9.761,9.761,0,0,0-10.06-9.64,9.761,9.761,0,0,0-10.06,9.64V68.457H2.012A1.862,1.862,0,0,0,0,70.385v38.56a1.862,1.862,0,0,0,2.012,1.928H8.048v5.4A1.862,1.862,0,0,0,10.06,118.2H89.94a1.862,1.862,0,0,0,2.012-1.928v-5.4h6.036A1.862,1.862,0,0,0,100,108.946V70.385A1.862,1.862,0,0,0,97.988,68.457ZM4.024,107.017v-34.7H47.887v34.7H4.024Zm83.7,7.519H12.072v-3.47H87.726Zm8.048-7.519H51.911v-34.7H95.775Z" transform="translate(0 -43.2)"/></g><g transform="translate(664.004 552.067)"><path class="a" d="M140.834,213.6A5.39,5.39,0,0,0,135.2,219a5.639,5.639,0,0,0,11.268,0A5.39,5.39,0,0,0,140.834,213.6Zm0,7.134a1.451,1.451,0,0,1-1.61-1.542,1.611,1.611,0,0,1,3.219,0A1.451,1.451,0,0,1,140.834,220.734Z" transform="translate(-135.2 -213.6)"/></g><g transform="translate(684.527 552.067)"><path class="a" d="M222.434,213.6A5.39,5.39,0,0,0,216.8,219a5.639,5.639,0,0,0,11.268,0A5.39,5.39,0,0,0,222.434,213.6Zm0,7.134a1.451,1.451,0,0,1-1.61-1.542,1.611,1.611,0,0,1,3.219,0A1.451,1.451,0,0,1,222.434,220.734Z" transform="translate(-216.8 -213.6)"/></g></g></svg>