<svg xmlns="http://www.w3.org/2000/svg" viewBox="0 0 100 75"><defs><style>.a{fill:#2a2828;}</style></defs><g transform="translate(-1190 -511)"><g transform="translate(1190 511)"><path class="a" d="M93.647,82.957V74.692C93.647,64.577,87.4,61,81.49,61H18.51C12.6,61,6.353,64.577,6.353,74.692v8.265C2.738,83.944,0,87.645,0,92.086v28.988a4.7,4.7,0,0,0,4.381,4.934H6.462v5.551A4.2,4.2,0,0,0,10.405,136h4.381a4.2,4.2,0,0,0,3.943-4.441v-5.551H81.271v5.551A4.2,4.2,0,0,0,85.214,136h4.381a4.2,4.2,0,0,0,3.943-4.441v-5.551h2.081A4.7,4.7,0,0,0,100,121.074V92.086C100,87.645,97.262,83.944,93.647,82.957ZM10.186,74.816c.11-7.771,4.6-9.375,8.324-9.375H81.051c3.724,0,8.324,1.6,8.324,9.375v8.265a9.208,9.208,0,0,0-6.353,9v2.59H16.539v-2.59a9.208,9.208,0,0,0-6.353-9Zm72.837,24.3v8.512H51.26V99.117Zm-35.706,0v8.512H16.539V99.117Zm-32.64,32.442H10.3v-5.551h4.381Zm74.7,0H84.995v-5.551h4.381Zm6.462-10.485a.5.5,0,0,1-.438.493H4.381a.5.5,0,0,1-.438-.493V92.086a4.7,4.7,0,0,1,4.381-4.934,4.7,4.7,0,0,1,4.381,4.934v17.763a2.1,2.1,0,0,0,1.972,2.22H85.1a2.1,2.1,0,0,0,1.972-2.22V92.086a4.412,4.412,0,1,1,8.762,0v28.988Z" transform="translate(0 -61)"/></g><g transform="translate(1211.906 523.582)"><path class="a" d="M86.024,101.8c-3.4,0-6.024,2.961-6.024,6.785,0,3.7,2.738,6.785,6.024,6.785s6.024-2.961,6.024-6.785C92.048,104.884,89.419,101.8,86.024,101.8Zm0,9.128a2.22,2.22,0,0,1-2.081-2.344,2.152,2.152,0,0,1,2.081-2.344,2.36,2.36,0,0,1,0,4.688Z" transform="translate(-80 -101.8)"/></g><g transform="translate(1254.732 523.582)"><path class="a" d="M242.424,101.8c-3.4,0-6.024,2.961-6.024,6.785.11,3.7,2.738,6.785,6.024,6.785s6.024-2.961,6.024-6.785C248.448,104.884,245.819,101.8,242.424,101.8Zm0,9.128a2.36,2.36,0,1,1,2.081-2.344A2.152,2.152,0,0,1,242.424,110.928Z" transform="translate(-236.4 -101.8)"/></g></g></svg>