<svg xmlns="http://www.w3.org/2000/svg" viewBox="0 0 100 75"><defs><style>.a{fill:#2a2828;}</style></defs><g transform="translate(-1330 -340)"><g transform="translate(1330 355.504)"><path class="a" d="M61.979,143.188H3.629C1.582,143.188,0,145.4,0,147.972v5.275c0,2.7,1.675,4.784,3.629,4.784h5.4v42.445c0,1.227.744,2.208,1.675,2.208s1.675-.981,1.675-2.208V158.031H53.231v42.445c0,1.227.744,2.208,1.675,2.208s1.675-.981,1.675-2.208V158.031h5.4c2.047,0,3.629-2.208,3.629-4.784v-5.275C65.609,145.273,63.933,143.188,61.979,143.188Zm.279,10.059c0,.245-.186.491-.372.491H3.629c-.186,0-.372-.245-.372-.491v-5.275c0-.245.186-.491.372-.491H61.886c.186,0,.372.245.372.491Z" transform="translate(0 -143.188)"/></g><g transform="translate(1388.259 340)"><path class="a" d="M291.82,95.258a3.518,3.518,0,0,0-1.675-1.84l-1.489-.613c-1.489-.613-3.071.491-3.536,2.453L280.653,114.4a4.819,4.819,0,0,0,.186,2.821,3.341,3.341,0,0,0,.838,1.227l-2.606,10.918H255.9c-1.954,0-3.536,2.208-3.536,4.784v3.435c0,2.7,1.582,4.784,3.536,4.784h.745L250.5,164.446a2.48,2.48,0,0,0,1.024,2.821.931.931,0,0,0,.558.123,1.76,1.76,0,0,0,1.582-1.472l6.607-23.553H277.3l6.607,23.553c.279.859.838,1.472,1.582,1.472a.931.931,0,0,0,.558-.123,2.541,2.541,0,0,0,1.024-2.821l-6.235-22.2c1.582-.491,2.792-2.453,2.792-4.662v-3.435a5.281,5.281,0,0,0-1.3-3.68l2.606-10.673c1.3,0,2.327-1.1,2.7-2.7L292.1,97.957A5.654,5.654,0,0,0,291.82,95.258ZM280.281,137.7c0,.245-.093.491-.186.491H255.9c-.093.123-.186-.123-.186-.368v-3.435c0-.245.093-.491.186-.491h24.2c.093,0,.186.123.186.368Zm4.281-22.2-.558-.245,4.188-18.033.558.245Z" transform="translate(-250.41 -92.635)"/></g></g></svg>