<svg xmlns="http://www.w3.org/2000/svg" viewBox="0 0 100 75"><defs><style>.a{fill:#2a2828;}</style></defs><g transform="translate(-1050 -340)"><g transform="translate(1050 301.2)"><g transform="translate(0 38.8)"><path class="a" d="M97.751,109.713H89.136V47.342c0-4.659-4.206-8.542-9.334-8.542H20.04c-5.173.041-9.357,3.842-9.4,8.542v62.371H2.249a2.053,2.053,0,1,0,0,4.087H24.022a2.053,2.053,0,1,0,0-4.087H15.137V47.342a4.749,4.749,0,0,1,4.9-4.455H34.256V82.329H32.861a3.207,3.207,0,0,0-3.329,3.127v6.151a3.257,3.257,0,0,0,3.329,3.188H67a3.393,3.393,0,0,0,3.464-3.188V85.455A3.331,3.331,0,0,0,67,82.329H65.52V42.887H79.8a4.7,4.7,0,0,1,4.836,4.455v62.371H75.978a2.053,2.053,0,1,0,0,4.087H97.751a2.053,2.053,0,1,0,0-4.087Zm-59-66.826H61.021V82.329H38.754V42.887ZM65.969,86.416v4.292H34.031V86.416Z" transform="translate(0 -38.8)"/></g></g></g></svg>