<svg xmlns="http://www.w3.org/2000/svg" viewBox="0 0 100 75"><defs><style>.a{fill:#2a2828;}</style></defs><g transform="translate(-910 -511)"><g transform="translate(910 511)"><path class="a" d="M25,164.862H3.333V123.733H0v75H3.333V181.8h20v16.935h3.333V167.282C26.667,165.944,25.921,164.862,25,164.862Zm-1.667,12.1h-20V169.7h20Z" transform="translate(0 -123.733)"/></g><g transform="translate(983.333 511)"><path class="a" d="M398.8,123.733v41.129H377.134c-.921,0-1.667,1.082-1.667,2.419v31.452H378.8V181.8h20v16.935h3.333v-75Zm0,53.226h-20V169.7h20Z" transform="translate(-375.467 -123.733)"/></g><g transform="translate(928.333 513.419)"><path class="a" d="M150.521,132.267H100.546c-3.682,0-6.679,4.34-6.679,9.677s3,9.677,6.679,9.677h23.321v27.955L107.752,200.63a3.233,3.233,0,0,0-.124,3.416,1.338,1.338,0,0,0,2.354.179l13.885-18.139v18.761H127.2V186.087l13.885,18.139a1.418,1.418,0,0,0,1.114.621,1.493,1.493,0,0,0,1.239-.8,3.233,3.233,0,0,0-.124-3.416L127.2,179.576V151.622h23.321c3.682,0,6.679-4.34,6.679-9.677S154.2,132.267,150.521,132.267Zm0,14.516H100.546c-1.845,0-3.346-2.171-3.346-4.839s1.5-4.839,3.346-4.839h49.976c1.845,0,3.346,2.171,3.346,4.839S152.366,146.783,150.521,146.783Z" transform="translate(-93.867 -132.267)"/></g></g></svg>