<svg xmlns="http://www.w3.org/2000/svg" viewBox="0 0 63 63"><defs><style>.a{fill:#04f866;}.b{fill:#fff;}</style></defs><g transform="translate(-1439 -2267)"><circle class="a" cx="31.5" cy="31.5" r="31.5" transform="translate(1439 2267)"/><path class="b" d="M27.023,31.524a15.274,15.274,0,0,1-4.947-.986A37.319,37.319,0,0,1,9.6,22.526a34.808,34.808,0,0,1-8.547-11.7C-.347,7.351-.351,4.5,1.042,3.2c.2-.188.4-.389.614-.6C2.926,1.348,4.361-.061,6.263,0c1.311.051,2.581.814,3.881,2.332,3.843,4.481,2.11,6.078.105,7.929l-.354.329c-.328.307-.948,1.731,4.818,7.137a31.532,31.532,0,0,0,4.769,3.837c.807.492,2.252,1.236,2.844.681l.356-.337c1.972-1.876,3.675-3.495,8.451.1,1.618,1.219,2.431,2.409,2.486,3.64.078,1.782-1.436,3.131-2.773,4.321-.221.2-.435.388-.636.575A4.593,4.593,0,0,1,27.023,31.524ZM6.127,1.06c-1.351,0-2.572,1.2-3.652,2.27-.217.214-.427.422-.634.616C.8,4.918.909,7.47,2.108,10.45A33.746,33.746,0,0,0,10.4,21.778a36.172,36.172,0,0,0,12.079,7.769c3.179,1.126,5.9,1.221,6.936.251.207-.194.429-.391.657-.594C31.231,28.169,32.548,27,32.491,25.7c-.04-.894-.734-1.856-2.064-2.858-3.98-3-5.092-1.941-6.938-.187l-.362.342c-.882.828-2.315.645-4.26-.541a32.575,32.575,0,0,1-4.952-3.977C9.13,13.991,7.6,11.246,9.1,9.839L9.458,9.5C11.334,7.774,12.466,6.73,9.264,3A4.622,4.622,0,0,0,6.215,1.061Z" transform="matrix(1, 0.017, -0.017, 1, 1454.278, 2282.709)"/></g></svg>